<?xml version="1.0" encoding="UTF-8"?>
<svg version="1.1" xmlns="http://www.w3.org/2000/svg" width="32" height="32">
<path d="M0 0 C1.87171875 -0.00386719 1.87171875 -0.00386719 3.78125 -0.0078125 C5.74578125 0.00378906 5.74578125 0.00378906 7.75 0.015625 C9.0596875 0.00789062 10.369375 0.00015625 11.71875 -0.0078125 C12.9665625 -0.00523438 14.214375 -0.00265625 15.5 0 C16.64984375 0.00225586 17.7996875 0.00451172 18.984375 0.00683594 C21.75 0.265625 21.75 0.265625 23.75 2.265625 C24.00878906 4.75585937 24.00878906 4.75585937 24.015625 7.859375 C24.01949219 9.52806641 24.01949219 9.52806641 24.0234375 11.23046875 C24.01570313 12.39707031 24.00796875 13.56367188 24 14.765625 C24.01160156 16.51552734 24.01160156 16.51552734 24.0234375 18.30078125 C24.02085938 19.41324219 24.01828125 20.52570312 24.015625 21.671875 C24.01336914 22.69603516 24.01111328 23.72019531 24.00878906 24.77539062 C23.75 27.265625 23.75 27.265625 21.75 29.265625 C20.76 29.265625 19.77 29.265625 18.75 29.265625 C19.06710938 28.75515625 19.38421875 28.2446875 19.7109375 27.71875 C21.08976273 24.46347841 21.1793573 21.53719368 21.375 18.015625 C21.49875 15.788125 21.6225 13.560625 21.75 11.265625 C12.51 11.265625 3.27 11.265625 -6.25 11.265625 C-6.188125 13.51375 -6.12625 15.761875 -6.0625 18.078125 C-6.02769531 19.34269531 -5.99289062 20.60726563 -5.95703125 21.91015625 C-5.60711289 25.44459384 -5.60711289 25.44459384 -2.69921875 27.08984375 C-1.89097656 27.47785156 -1.08273438 27.86585937 -0.25 28.265625 C-0.25 28.925625 -0.25 29.585625 -0.25 30.265625 C-6 29.515625 -6 29.515625 -8.25 27.265625 C-8.50878906 24.77539062 -8.50878906 24.77539062 -8.515625 21.671875 C-8.51820312 20.55941406 -8.52078125 19.44695313 -8.5234375 18.30078125 C-8.51183594 16.55087891 -8.51183594 16.55087891 -8.5 14.765625 C-8.50773438 13.59902344 -8.51546875 12.43242187 -8.5234375 11.23046875 C-8.52085938 10.11800781 -8.51828125 9.00554688 -8.515625 7.859375 C-8.51336914 6.83521484 -8.51111328 5.81105469 -8.50878906 4.75585938 C-7.95368183 -0.58573848 -4.5149452 0.0088578 0 0 Z M-6.25 4.265625 C-6.25 5.915625 -6.25 7.565625 -6.25 9.265625 C2.99 9.265625 12.23 9.265625 21.75 9.265625 C21.75 7.615625 21.75 5.965625 21.75 4.265625 C19.14131631 1.65694131 18.00467636 2.00833587 14.375 2 C13.30765625 1.99742188 12.2403125 1.99484375 11.140625 1.9921875 C10.02171875 1.99992188 8.9028125 2.00765625 7.75 2.015625 C6.07164063 2.00402344 6.07164063 2.00402344 4.359375 1.9921875 C3.29203125 1.99476562 2.2246875 1.99734375 1.125 2 C-0.34839844 2.00338379 -0.34839844 2.00338379 -1.8515625 2.00683594 C-4.43438497 2.03189637 -4.43438497 2.03189637 -6.25 4.265625 Z " fill="#F4E7E7" transform="translate(8.25,-0.265625)"/>
<path d="M0 0 C1.2375 0.7425 1.2375 0.7425 2.5 1.5 C2.5 4.47 2.5 7.44 2.5 10.5 C1.84 10.5 1.18 10.5 0.5 10.5 C0.17 9.18 -0.16 7.86 -0.5 6.5 C-0.809375 7.634375 -1.11875 8.76875 -1.4375 9.9375 C-2.5 13.5 -2.5 13.5 -3.5 14.5 C-9.23611111 14.77314815 -9.23611111 14.77314815 -11.5 14.5 C-13.5 12.5 -13.5 12.5 -13.9375 9.5 C-14.123125 8.51 -14.30875 7.52 -14.5 6.5 C-15.49 5.84 -16.48 5.18 -17.5 4.5 C-17.3125 2.625 -17.3125 2.625 -16.5 0.5 C-11.22901271 -2.69453775 -5.44266211 -2.33256947 0 0 Z M-14.5 2.5 C-12.11223142 4.70409407 -10.76843543 5.46644557 -7.5 5.875 C-4.23156457 5.46644557 -2.88776858 4.70409407 -0.5 2.5 C-5.8060954 0.14173538 -9.1939046 0.14173538 -14.5 2.5 Z M-11.5 7.5 C-11.17 9.15 -10.84 10.8 -10.5 12.5 C-8.52 12.5 -6.54 12.5 -4.5 12.5 C-4.17 10.85 -3.84 9.2 -3.5 7.5 C-6.14 7.5 -8.78 7.5 -11.5 7.5 Z " fill="#F4E8E8" transform="translate(23.5,17.5)"/>
<path d="M0 0 C0.99 0 1.98 0 3 0 C3 0.99 3 1.98 3 3 C2.01 3 1.02 3 0 3 C0 2.01 0 1.02 0 0 Z " fill="#F3E8E8" transform="translate(12,4)"/>
<path d="M0 0 C0.99 0 1.98 0 3 0 C3 0.99 3 1.98 3 3 C2.01 3 1.02 3 0 3 C0 2.01 0 1.02 0 0 Z " fill="#F3E8E8" transform="translate(8,4)"/>
<path d="M0 0 C0.99 0 1.98 0 3 0 C3 0.99 3 1.98 3 3 C2.01 3 1.02 3 0 3 C0 2.01 0 1.02 0 0 Z " fill="#F3E8E8" transform="translate(4,4)"/>
</svg>
