<?xml version="1.0" encoding="UTF-8"?>
<svg version="1.1" xmlns="http://www.w3.org/2000/svg" width="32" height="32">
<path d="M0 0 C1.87171875 -0.00386719 1.87171875 -0.00386719 3.78125 -0.0078125 C5.74578125 0.00378906 5.74578125 0.00378906 7.75 0.015625 C9.0596875 0.00789062 10.369375 0.00015625 11.71875 -0.0078125 C12.9665625 -0.00523438 14.214375 -0.00265625 15.5 0 C16.64984375 0.00225586 17.7996875 0.00451172 18.984375 0.00683594 C21.75 0.265625 21.75 0.265625 23.75 2.265625 C23.97705078 4.60400391 23.97705078 4.60400391 23.9453125 7.4921875 C23.93886719 8.5234375 23.93242188 9.5546875 23.92578125 10.6171875 C23.90902344 11.69742187 23.89226563 12.77765625 23.875 13.890625 C23.86597656 14.97859375 23.85695312 16.0665625 23.84765625 17.1875 C23.82403409 19.88042652 23.79109556 22.57291755 23.75 25.265625 C22.43 25.265625 21.11 25.265625 19.75 25.265625 C19.75 20.315625 19.75 15.365625 19.75 10.265625 C11.83 10.265625 3.91 10.265625 -4.25 10.265625 C-4.1675 12.163125 -4.085 14.060625 -4 16.015625 C-3.95359375 17.08296875 -3.9071875 18.1503125 -3.859375 19.25 C-3.14410286 22.78968008 -1.99415095 24.00444462 0.75 26.265625 C0.09 27.585625 -0.57 28.905625 -1.25 30.265625 C-4.16517292 29.19161392 -6.02810176 28.48752324 -8.25 26.265625 C-8.50878906 23.8671875 -8.50878906 23.8671875 -8.515625 20.890625 C-8.51820312 19.82328125 -8.52078125 18.7559375 -8.5234375 17.65625 C-8.51183594 15.97789063 -8.51183594 15.97789063 -8.5 14.265625 C-8.50773438 13.14671875 -8.51546875 12.0278125 -8.5234375 10.875 C-8.52085938 9.80765625 -8.51828125 8.7403125 -8.515625 7.640625 C-8.51336914 6.65835937 -8.51111328 5.67609375 -8.50878906 4.6640625 C-7.94013416 -0.60618819 -4.43062738 0.00869237 0 0 Z M-3.25 3.265625 C-3.25 4.255625 -3.25 5.245625 -3.25 6.265625 C-2.59 6.265625 -1.93 6.265625 -1.25 6.265625 C-1.25 5.275625 -1.25 4.285625 -1.25 3.265625 C-1.91 3.265625 -2.57 3.265625 -3.25 3.265625 Z M3.75 3.265625 C3.75 4.255625 3.75 5.245625 3.75 6.265625 C4.41 6.265625 5.07 6.265625 5.75 6.265625 C5.42 5.275625 5.09 4.285625 4.75 3.265625 C4.42 3.265625 4.09 3.265625 3.75 3.265625 Z " fill="#F6F1F1" transform="translate(8.25,-0.265625)"/>
<path d="M0 0 C2.625 2.5625 2.625 2.5625 3 5.05078125 C3 7.5817133 2.88436057 10.04574188 2.625 12.5625 C1.985625 12.68625 1.34625 12.81 0.6875 12.9375 C0.006875 13.14375 -0.67375 13.35 -1.375 13.5625 C-1.705 14.2225 -2.035 14.8825 -2.375 15.5625 C-5.675 15.5625 -8.975 15.5625 -12.375 15.5625 C-12.49875 13.95375 -12.49875 13.95375 -12.625 12.3125 C-13.42976902 8.2886549 -14.25229874 7.08080747 -17.375 4.5625 C-16.32228122 1.50961553 -15.37148603 0.56018398 -12.625 -1.25 C-7.5917719 -3.08906411 -4.81698007 -2.05167669 0 0 Z M-11.375 8.5625 C-11.045 9.2225 -10.715 9.8825 -10.375 10.5625 C-8.395 10.5625 -6.415 10.5625 -4.375 10.5625 C-4.045 9.9025 -3.715 9.2425 -3.375 8.5625 C-6.015 8.5625 -8.655 8.5625 -11.375 8.5625 Z " fill="#F5F1F1" transform="translate(23.375,16.4375)"/>
</svg>
