<?xml version="1.0" encoding="UTF-8"?>
<svg version="1.1" xmlns="http://www.w3.org/2000/svg" width="32" height="32">
<path d="M0 0 C2.69898228 1.55067675 4.35475737 2.6939915 6.5 4.8125 C7.02682373 5.3278833 7.55364746 5.8432666 8.09643555 6.37426758 C13.07058586 11.96485522 13.01557855 17.57052673 12.69921875 24.76293945 C12.25206005 30.74793995 12.25206005 30.74793995 11 32 C8.79349344 32.10012401 6.58377614 32.1308118 4.375 32.1328125 C3.71290527 32.13376923 3.05081055 32.13472595 2.36865234 32.13571167 C0.96647039 32.13639326 -0.4357147 32.13454042 -1.83789062 32.13037109 C-3.99095713 32.12502246 -6.14381502 32.1303167 -8.296875 32.13671875 C-9.65625046 32.13605796 -11.0156258 32.13477679 -12.375 32.1328125 C-13.62023437 32.13168457 -14.86546875 32.13055664 -16.1484375 32.12939453 C-19 32 -19 32 -20 31 C-22.23921627 14.48367547 -22.23921627 14.48367547 -17.60546875 8.0703125 C-16.60821327 6.94946897 -15.57243124 5.86164248 -14.5 4.8125 C-13.99573486 4.31451904 -13.49146973 3.81653809 -12.97192383 3.3034668 C-8.883224 -0.2127003 -5.15965662 -1.21097911 0 0 Z M-9 6.1875 C-9.99 7.10595703 -9.99 7.10595703 -11 8.04296875 C-11.66 8.68878906 -12.32 9.33460937 -13 10 C-14.10408203 10.88558594 -14.10408203 10.88558594 -15.23046875 11.7890625 C-17.74664155 14.93288988 -17.43170254 17.22093261 -17.3125 21.1875 C-17.28800781 22.43917969 -17.26351563 23.69085937 -17.23828125 24.98046875 C-17.33841906 27.87801031 -17.33841906 27.87801031 -16 29 C-14.33382885 29.04063832 -12.66611905 29.042721 -11 29 C-10.87882813 28.28972656 -10.75765625 27.57945313 -10.6328125 26.84765625 C-10.46523437 25.92855469 -10.29765625 25.00945313 -10.125 24.0625 C-9.96257813 23.14597656 -9.80015625 22.22945312 -9.6328125 21.28515625 C-9.42398437 20.53105469 -9.21515625 19.77695312 -9 19 C-6.20129973 17.60064987 -4.09501208 17.74734595 -1 18 C0.8125 19 0.8125 19 2 21 C2.53940483 23.68115931 2.77568114 26.2633099 3 29 C4.66611905 29.042721 6.33382885 29.04063832 8 29 C9.91770375 27.08229625 9.51859955 24.13477076 9.6875 21.5625 C9.68119845 15.39958008 8.58282623 12.57758825 4.25 8.1875 C-0.75842953 3.69895131 -3.67791198 1.14606896 -9 6.1875 Z M-6 21 C-8.1519437 24.22791555 -8.20086443 25.28400809 -8 29 C-5.36 29 -2.72 29 0 29 C-0.33 26.69 -0.66 24.38 -1 22 C-2.65 21.67 -4.3 21.34 -6 21 Z " fill="#F4EBEB" transform="translate(20,0)"/>
</svg>
