<?xml version="1.0" encoding="UTF-8"?>
<svg version="1.1" xmlns="http://www.w3.org/2000/svg" width="32" height="32">
<path d="M0 0 C1.32 0 2.64 0 4 0 C4 0.99 4 1.98 4 3 C6.31 3.33 8.62 3.66 11 4 C11 4.99 11 5.98 11 7 C10.34 7 9.68 7 9 7 C9.33 7.763125 9.66 8.52625 10 9.3125 C11 12 11 12 11 15 C9.35 15.33 7.7 15.66 6 16 C7.27875 16.12375 8.5575 16.2475 9.875 16.375 C13.75 16.75 13.75 16.75 16 19 C16 20.32 16 21.64 16 23 C14.68 23 13.36 23 12 23 C11.67 22.34 11.34 21.68 11 21 C8.67843403 20.59270772 6.3431213 20.25561323 4 20 C4 20.99 4 21.98 4 23 C2.68 23 1.36 23 0 23 C0 22.01 0 21.02 0 20 C-2.3431213 20.25561323 -4.67843403 20.59270772 -7 21 C-7.33 21.66 -7.66 22.32 -8 23 C-9.32 23 -10.64 23 -12 23 C-11.125 18.125 -11.125 18.125 -10 17 C-7.34536879 16.54540142 -4.67810862 16.29756762 -2 16 C-4.475 15.01 -4.475 15.01 -7 14 C-6.34 11.69 -5.68 9.38 -5 7 C-5.66 7 -6.32 7 -7 7 C-7 6.01 -7 5.02 -7 4 C-3.535 3.505 -3.535 3.505 0 3 C0 2.01 0 1.02 0 0 Z M1 8 C1 8.99 1 9.98 1 11 C1.66 11 2.32 11 3 11 C3 10.01 3 9.02 3 8 C2.34 8 1.68 8 1 8 Z " fill="#FCF6F6" transform="translate(14,0)"/>
<path d="M0 0 C2.64 0 5.28 0 8 0 C8 2.64 8 5.28 8 8 C5.36 8 2.72 8 0 8 C0 5.36 0 2.72 0 0 Z " fill="#FCF5F5" transform="translate(24,24)"/>
<path d="M0 0 C2.64 0 5.28 0 8 0 C8 2.64 8 5.28 8 8 C5.36 8 2.72 8 0 8 C0 5.36 0 2.72 0 0 Z " fill="#FCF5F5" transform="translate(12,24)"/>
<path d="M0 0 C2.64 0 5.28 0 8 0 C8 2.64 8 5.28 8 8 C5.36 8 2.72 8 0 8 C0 5.36 0 2.72 0 0 Z " fill="#FCF5F5" transform="translate(0,24)"/>
</svg>
