<?xml version="1.0" encoding="UTF-8"?>
<svg version="1.1" xmlns="http://www.w3.org/2000/svg" width="32" height="32">
<path d="M0 0 C1.32 0 2.64 0 4 0 C4 0.99 4 1.98 4 3 C5.98 2.67 7.96 2.34 10 2 C10.66 3.65 11.32 5.3 12 7 C11.01 7.495 11.01 7.495 10 8 C9.67 8.99 9.34 9.98 9 11 C9.99 11.33 10.98 11.66 12 12 C11.34 13.32 10.68 14.64 10 16 C7.69 16 5.38 16 3 16 C3 16.66 3 17.32 3 18 C6.96 18 10.92 18 15 18 C15 19.65 15 21.3 15 23 C14.34 23 13.68 23 13 23 C13 22.01 13 21.02 13 20 C9.7 20 6.4 20 3 20 C3 20.99 3 21.98 3 23 C2.34 23 1.68 23 1 23 C1 22.01 1 21.02 1 20 C-2.3 20 -5.6 20 -9 20 C-9 20.99 -9 21.98 -9 23 C-9.66 23 -10.32 23 -11 23 C-11 21.35 -11 19.7 -11 18 C-7.04 18 -3.08 18 1 18 C1 17.34 1 16.68 1 16 C-1.31 16 -3.62 16 -6 16 C-6.66 14.68 -7.32 13.36 -8 12 C-7.01 11.67 -6.02 11.34 -5 11 C-5.7763932 7.9254644 -5.7763932 7.9254644 -8 6 C-7.34 4.68 -6.68 3.36 -6 2 C-3.03 2.495 -3.03 2.495 0 3 C0 2.01 0 1.02 0 0 Z M-1 5 C-3.264384 7.69155201 -3.264384 7.69155201 -2.75 10.0625 C-2.07467282 12.19476975 -2.07467282 12.19476975 0 14 C3.29714793 13.67028521 4.6226839 13.3773161 7 11 C6.71016731 7.69316534 6.71016731 7.69316534 5 5 C2.04195427 4.66659529 2.04195427 4.66659529 -1 5 Z " fill="#FFF9F9" transform="translate(14,0)"/>
<path d="M0 0 C2.64 0 5.28 0 8 0 C8 2.64 8 5.28 8 8 C5.36 8 2.72 8 0 8 C0 5.36 0 2.72 0 0 Z M2 2 C2 3.32 2 4.64 2 6 C3.32 6 4.64 6 6 6 C6 4.68 6 3.36 6 2 C4.68 2 3.36 2 2 2 Z " fill="#FFF9F9" transform="translate(24,24)"/>
<path d="M0 0 C2.64 0 5.28 0 8 0 C8 2.64 8 5.28 8 8 C5.36 8 2.72 8 0 8 C0 5.36 0 2.72 0 0 Z M2 2 C2 3.32 2 4.64 2 6 C3.32 6 4.64 6 6 6 C6 4.68 6 3.36 6 2 C4.68 2 3.36 2 2 2 Z " fill="#FFF9F9" transform="translate(12,24)"/>
<path d="M0 0 C2.64 0 5.28 0 8 0 C8 2.64 8 5.28 8 8 C5.36 8 2.72 8 0 8 C0 5.36 0 2.72 0 0 Z M2 2 C2 3.32 2 4.64 2 6 C3.32 6 4.64 6 6 6 C6 4.68 6 3.36 6 2 C4.68 2 3.36 2 2 2 Z " fill="#FFF9F9" transform="translate(0,24)"/>
<path d="M0 0 C1.65 0.33 3.3 0.66 5 1 C4.67 2.65 4.34 4.3 4 6 C2.35 5.67 0.7 5.34 -1 5 C-0.67 3.35 -0.34 1.7 0 0 Z " fill="#FFF9F9" transform="translate(14,6)"/>
</svg>
