<?xml version="1.0" encoding="UTF-8"?>
<svg version="1.1" xmlns="http://www.w3.org/2000/svg" width="32" height="32">
<path d="M0 0 C4.91614396 0.17673053 8.62252923 0.6073342 12.64697266 3.69360352 C18.94772938 11.25942445 16.48245156 23.67734701 16.02197266 32.63110352 C6.78197266 32.63110352 -2.45802734 32.63110352 -11.97802734 32.63110352 C-12.00093972 28.23447319 -12.02086568 23.83804864 -12.03295898 19.44140625 C-12.03799855 17.94465433 -12.04483022 16.44790736 -12.0534668 14.95117188 C-12.06554893 12.80410545 -12.07125926 10.6571039 -12.07568359 8.51000977 C-12.08092041 7.21651611 -12.08615723 5.92302246 -12.09155273 4.59033203 C-11.85066293 -1.68886225 -4.98163338 0.01227003 0 0 Z M-8.97802734 2.63110352 C-10.33503381 5.34511646 -10.09041344 7.47956668 -10.07568359 10.51391602 C-10.07246094 11.68051758 -10.06923828 12.84711914 -10.06591797 14.04907227 C-10.05753906 15.27239258 -10.04916016 16.49571289 -10.04052734 17.75610352 C-10.03601563 18.9871582 -10.03150391 20.21821289 -10.02685547 21.48657227 C-10.01504075 24.53476991 -9.99710485 27.58294268 -9.97802734 30.63110352 C-2.05802734 30.63110352 5.86197266 30.63110352 14.02197266 30.63110352 C14.02197266 24.36110352 14.02197266 18.09110352 14.02197266 11.63110352 C10.72197266 11.63110352 7.42197266 11.63110352 4.02197266 11.63110352 C4.02197266 8.66110352 4.02197266 5.69110352 4.02197266 2.63110352 C-0.26802734 2.63110352 -4.55802734 2.63110352 -8.97802734 2.63110352 Z M6.02197266 4.63110352 C6.02197266 6.28110352 6.02197266 7.93110352 6.02197266 9.63110352 C7.67197266 9.63110352 9.32197266 9.63110352 11.02197266 9.63110352 C9.37197266 7.98110352 7.72197266 6.33110352 6.02197266 4.63110352 Z " fill="#F8F4F4" transform="translate(13.97802734375,-0.631103515625)"/>
<path d="M0 0 C0.66 0 1.32 0 2 0 C2 1.65 2 3.3 2 5 C0.68 5 -0.64 5 -2 5 C-2 4.34 -2 3.68 -2 3 C-1.34 3 -0.68 3 0 3 C0 2.01 0 1.02 0 0 Z " fill="#F8F4F4" transform="translate(22,22)"/>
<path d="M0 0 C0.66 0 1.32 0 2 0 C2 0.99 2 1.98 2 3 C2.66 3 3.32 3 4 3 C4 3.66 4 4.32 4 5 C2.68 5 1.36 5 0 5 C0 3.35 0 1.7 0 0 Z " fill="#F8F4F4" transform="translate(8,22)"/>
<path d="M0 0 C1.32 0 2.64 0 4 0 C4 1.65 4 3.3 4 5 C3.34 5 2.68 5 2 5 C2 4.01 2 3.02 2 2 C1.34 2 0.68 2 0 2 C0 1.34 0 0.68 0 0 Z " fill="#F8F3F3" transform="translate(20,14)"/>
<path d="M0 0 C1.32 0 2.64 0 4 0 C4 0.66 4 1.32 4 2 C3.34 2 2.68 2 2 2 C2 2.99 2 3.98 2 5 C1.34 5 0.68 5 0 5 C0 3.35 0 1.7 0 0 Z " fill="#F8F3F3" transform="translate(8,14)"/>
<path d="M0 0 C2.31 0 4.62 0 7 0 C7 0.66 7 1.32 7 2 C4.69 2 2.38 2 0 2 C0 1.34 0 0.68 0 0 Z " fill="#F8F4F4" transform="translate(8,9)"/>
</svg>
