<?xml version="1.0" encoding="UTF-8"?>
<svg version="1.1" xmlns="http://www.w3.org/2000/svg" width="32" height="32">
<path d="M0 0 C5.04718352 0.02178902 8.68913476 0.56078905 12.625 3.9375 C17.52614591 9.00093551 18.15444679 13.24983557 18.125 20.1875 C18.14111328 20.94675781 18.15722656 21.70601562 18.17382812 22.48828125 C18.17658063 25.63163673 18.12777417 28.11050438 16.60229492 30.90234375 C14.27051651 33.22807881 13.06751361 33.20219106 9.8125 33.21875 C8.843125 33.22390625 7.87375 33.2290625 6.875 33.234375 C5.864375 33.21890625 4.85375 33.2034375 3.8125 33.1875 C2.2965625 33.21070312 2.2965625 33.21070312 0.75 33.234375 C-0.219375 33.22921875 -1.18875 33.2240625 -2.1875 33.21875 C-3.074375 33.21423828 -3.96125 33.20972656 -4.875 33.20507812 C-7.1875 32.6875 -7.1875 32.6875 -8.97509766 30.99804688 C-10.44039666 28.20553987 -10.57483638 26.33387343 -10.5859375 23.1875 C-10.59173828 21.6096875 -10.59173828 21.6096875 -10.59765625 20 C-10.58605469 18.906875 -10.57445312 17.81375 -10.5625 16.6875 C-10.57410156 15.594375 -10.58570313 14.50125 -10.59765625 13.375 C-10.59378906 12.323125 -10.58992187 11.27125 -10.5859375 10.1875 C-10.58255371 9.2284375 -10.57916992 8.269375 -10.57568359 7.28125 C-9.59509378 0.72918324 -6.07954805 0.07927194 0 0 Z M-6.1875 5.6875 C-6.49801841 7.98140431 -6.49801841 7.98140431 -6.453125 10.625 C-6.45570312 11.60210938 -6.45828125 12.57921875 -6.4609375 13.5859375 C-6.45320312 14.60945312 -6.44546875 15.63296875 -6.4375 16.6875 C-6.44523438 17.71101563 -6.45296875 18.73453125 -6.4609375 19.7890625 C-6.45835938 20.76617188 -6.45578125 21.74328125 -6.453125 22.75 C-6.45086914 23.64847656 -6.44861328 24.54695313 -6.44628906 25.47265625 C-6.39558942 27.89292165 -6.39558942 27.89292165 -4.1875 29.6875 C-1.47827199 29.88602102 1.10553179 29.96589477 3.8125 29.9375 C4.54984375 29.94523437 5.2871875 29.95296875 6.046875 29.9609375 C10.39671903 30.09758865 10.39671903 30.09758865 13.8125 27.6875 C14.05610073 24.55935486 14.05610073 24.55935486 13.9375 21.0625 C13.91945313 19.87398437 13.90140625 18.68546875 13.8828125 17.4609375 C13.85960938 16.54570312 13.83640625 15.63046875 13.8125 14.6875 C12.513125 14.543125 11.21375 14.39875 9.875 14.25 C5.9375 13.8125 5.9375 13.8125 4.8125 12.6875 C4.58057135 11.17280552 4.40034762 9.64995438 4.25 8.125 C4.16621094 7.29871094 4.08242188 6.47242188 3.99609375 5.62109375 C3.93550781 4.98300781 3.87492187 4.34492187 3.8125 3.6875 C-1.77414846 3.08328469 -1.77414846 3.08328469 -6.1875 5.6875 Z M6.8125 5.6875 C6.8125 7.3375 6.8125 8.9875 6.8125 10.6875 C8.4625 10.6875 10.1125 10.6875 11.8125 10.6875 C10.1625 9.0375 8.5125 7.3875 6.8125 5.6875 Z " fill="#F4EBEB" transform="translate(12.1875,-0.6875)"/>
<path d="M0 0 C0.99 0 1.98 0 3 0 C3 1.65 3 3.3 3 5 C1.02 5 -0.96 5 -3 5 C-3 4.01 -3 3.02 -3 2 C-2.01 2 -1.02 2 0 2 C0 1.34 0 0.68 0 0 Z " fill="#F4ECEC" transform="translate(21,22)"/>
<path d="M0 0 C0.99 0 1.98 0 3 0 C3 0.66 3 1.32 3 2 C3.99 2 4.98 2 6 2 C6 2.99 6 3.98 6 5 C4.02 5 2.04 5 0 5 C0 3.35 0 1.7 0 0 Z " fill="#F4ECEC" transform="translate(8,22)"/>
<path d="M0 0 C1.65 0 3.3 0 5 0 C5 1.32 5 2.64 5 4 C3.35 4 1.7 4 0 4 C0 2.68 0 1.36 0 0 Z " fill="#F3EAEA" transform="translate(8,10)"/>
<path d="M0 0 C1.98 0 3.96 0 6 0 C6 1.32 6 2.64 6 4 C3.03 3.505 3.03 3.505 0 3 C0 2.01 0 1.02 0 0 Z " fill="#F4ECEC" transform="translate(18,16)"/>
<path d="M0 0 C1.98 0 3.96 0 6 0 C6 0.99 6 1.98 6 3 C4.02 3.33 2.04 3.66 0 4 C0 2.68 0 1.36 0 0 Z " fill="#F4EBEB" transform="translate(8,16)"/>
</svg>
