<?xml version="1.0" encoding="UTF-8"?>
<svg version="1.1" xmlns="http://www.w3.org/2000/svg" width="32" height="32">
<path d="M0 0 C4.88169605 2.26650174 7.59625754 5.19251507 10 10 C10.30925996 12.76338734 10.19274495 15.20519828 10 18 C8.68 18 7.36 18 6 18 C4.68 15.03 3.36 12.06 2 9 C1.67 10.65 1.34 12.3 1 14 C-1.475 13.505 -1.475 13.505 -4 13 C-4.33 11.35 -4.66 9.7 -5 8 C-5.66 8 -6.32 8 -7 8 C-8.19448495 14.94618965 -8.36247785 19.76635372 -4.91015625 26.02734375 C-4 28 -4 28 -4 32 C-10.06966268 32.41859743 -13.20232338 32.14344799 -18 28 C-21.62833663 24.18069828 -22.31000458 21.11720994 -22.5 16 C-22.25156236 9.3087462 -20.3143755 6.19865673 -15.5 1.625 C-10.33499991 -0.77303575 -5.5997712 -0.75381535 0 0 Z M-14 8 C-16.37015245 10.65484449 -16.37015245 10.65484449 -17 14 C-16.01 14 -15.02 14 -14 14 C-13.67 12.02 -13.34 10.04 -13 8 C-13.33 8 -13.66 8 -14 8 Z M-17 18 C-15.88145414 21.72614153 -15.88145414 21.72614153 -13 24 C-13.33 22.02 -13.66 20.04 -14 18 C-14.99 18 -15.98 18 -17 18 Z " fill="#FFFFFF" transform="translate(22,0)"/>
<path d="M0 0 C6.24723226 -0.82200425 10.71317837 2.07448606 16 5 C15.6171875 6.94140625 15.6171875 6.94140625 15 9 C13.66666667 9.66666667 12.33333333 10.33333333 11 11 C9.24677063 13.53188648 9.24677063 13.53188648 8 16 C6.140625 15.76171875 6.140625 15.76171875 4 15 C0.89877765 10.45345489 -0.56310544 5.49027801 0 0 Z " fill="#FFFFFF" transform="translate(16,16)"/>
</svg>
