<?xml version="1.0" encoding="UTF-8"?>
<svg version="1.1" xmlns="http://www.w3.org/2000/svg" width="32" height="32">
<path d="M0 0 C4.88169605 2.26650174 7.59625754 5.19251507 10 10 C10.30925996 12.76338734 10.19274495 15.20519828 10 18 C9.34 18 8.68 18 8 18 C7.67 16.02 7.34 14.04 7 12 C4.525 11.505 4.525 11.505 2 11 C2 11.99 2 12.98 2 14 C1.34 14 0.68 14 0 14 C-0.33 13.34 -0.66 12.68 -1 12 C-4.3 12 -7.6 12 -11 12 C-11 14.64 -11 17.28 -11 20 C-10.01 20.33 -9.02 20.66 -8 21 C-8 21.66 -8 22.32 -8 23 C-8.66 23 -9.32 23 -10 23 C-7.62370911 27.14670039 -7.62370911 27.14670039 -4 30 C-4 30.66 -4 31.32 -4 32 C-10.06966268 32.41859743 -13.20232338 32.14344799 -18 28 C-21.62833663 24.18069828 -22.31000458 21.11720994 -22.5 16 C-22.25156236 9.3087462 -20.3143755 6.19865673 -15.5 1.625 C-10.33499991 -0.77303575 -5.5997712 -0.75381535 0 0 Z M-18 8 C-18 8.33 -18 8.66 -18 9 C-16.35 9 -14.7 9 -13 9 C-12.01 7.02 -11.02 5.04 -10 3 C-13.4999735 3 -15.49946381 5.77126122 -18 8 Z M-7 3 C-9.34287418 5.67247634 -9.34287418 5.67247634 -10 9 C-7.36 9 -4.72 9 -2 9 C-2.78130071 6.50447516 -2.78130071 6.50447516 -4 4 C-4.99 3.67 -5.98 3.34 -7 3 Z M-2 3 C-1.01 4.98 -0.02 6.96 1 9 C2.65 9 4.3 9 6 9 C3.48929246 5.33112448 3.48929246 5.33112448 -0.25 3.1875 C-0.8275 3.125625 -1.405 3.06375 -2 3 Z M-19 11 C-20.19695276 11.97910585 -20.19695276 11.97910585 -20.1328125 13.8125 C-20.13023438 14.534375 -20.12765625 15.25625 -20.125 16 C-20.12757812 16.721875 -20.13015625 17.44375 -20.1328125 18.1875 C-20.19695276 20.02089415 -20.19695276 20.02089415 -19 21 C-17.35 21 -15.7 21 -14 21 C-14 17.7 -14 14.4 -14 11 C-15.65 11 -17.3 11 -19 11 Z M-18 23 C-15.48929246 26.66887552 -15.48929246 26.66887552 -11.75 28.8125 C-11.1725 28.874375 -10.595 28.93625 -10 29 C-11.485 26.03 -11.485 26.03 -13 23 C-14.65 23 -16.3 23 -18 23 Z " fill="#E7DEDE" transform="translate(22,0)"/>
<path d="M0 0 C5.98327582 0.30683466 10.82978287 3.23097067 16 6 C15.6171875 8.4375 15.6171875 8.4375 15 11 C13.6846659 11.70151152 12.34882408 12.36525925 11 13 C9.24677063 15.53188648 9.24677063 15.53188648 8 18 C5.6796875 17.828125 5.6796875 17.828125 3 17 C1.3828125 14.671875 1.3828125 14.671875 0.125 11.75 C-0.30554688 10.79609375 -0.73609375 9.8421875 -1.1796875 8.859375 C-2.07485456 5.73907838 -1.9677695 4.06641572 -1 1 C-0.67 0.67 -0.34 0.34 0 0 Z M1 3 C1.66498383 7.38889325 3.18757677 10.9811485 5 15 C5.66 15 6.32 15 7 15 C7.2475 14.38125 7.495 13.7625 7.75 13.125 C9.20628639 10.64931313 10.37812506 10.04874998 13 9 C13 8.34 13 7.68 13 7 C11.56570999 6.32645501 10.12742943 5.66140299 8.6875 5 C7.88699219 4.62875 7.08648437 4.2575 6.26171875 3.875 C3.93786041 2.81959333 3.93786041 2.81959333 1 3 Z " fill="#E7DFDF" transform="translate(16,14)"/>
</svg>
